<svg width="453" height="240" viewBox="0 0 453 240" fill="none" xmlns="http://www.w3.org/2000/svg">
<g style="mix-blend-mode:multiply">
<ellipse rx="60.313" ry="58.9926" transform="matrix(1 0 0 -1 366.36 114.7)" fill="#FFDE2F"/>
</g>
<path fill-rule="evenodd" clip-rule="evenodd" d="M350.016 109.471C350.281 110.096 349.988 110.815 349.362 111.077C346.695 112.195 343.829 111.625 341.682 110.275C339.56 108.941 337.896 106.681 337.918 104.148C337.924 103.471 338.479 102.928 339.159 102.935C339.838 102.943 340.384 103.499 340.378 104.177C340.366 105.605 341.347 107.167 342.99 108.2C344.607 109.217 346.626 109.559 348.403 108.814C349.029 108.552 349.751 108.846 350.016 109.471Z" fill="#212121"/>
<path fill-rule="evenodd" clip-rule="evenodd" d="M392.402 171.597C392.384 172.276 392.919 172.84 393.597 172.858C401.312 173.065 407.589 170.473 411.612 165.807C415.633 161.144 417.261 154.57 416.002 147.089C415.889 146.42 415.255 145.969 414.586 146.082C413.917 146.195 413.466 146.829 413.578 147.498C414.741 154.401 413.207 160.195 409.751 164.203C406.297 168.209 400.785 170.592 393.664 170.402C392.985 170.384 392.42 170.919 392.402 171.597Z" fill="#212121"/>
<ellipse cx="341.458" cy="94.7177" rx="1.9147" ry="1.90299" fill="#212121"/>
<ellipse cx="355.825" cy="94.7177" rx="1.9147" ry="1.90299" fill="#212121"/>
<path fill-rule="evenodd" clip-rule="evenodd" d="M360.713 160.956C361.391 160.956 361.941 161.506 361.941 162.184V212.969C361.941 213.648 361.391 214.198 360.713 214.198H343.209C342.531 214.198 341.98 213.648 341.98 212.969C341.98 212.291 342.531 211.741 343.209 211.741H359.484V162.184C359.484 161.506 360.034 160.956 360.713 160.956ZM374.179 160.956C374.858 160.956 375.408 161.506 375.408 162.184V211.741H392.356C393.034 211.741 393.585 212.291 393.585 212.969C393.585 213.648 393.034 214.198 392.356 214.198H374.179C373.5 214.198 372.95 213.648 372.95 212.969V162.184C372.95 161.506 373.5 160.956 374.179 160.956Z" fill="#212121"/>
<g style="mix-blend-mode:multiply">
<ellipse rx="60.313" ry="58.9926" transform="matrix(1 0 0 -1 274.442 85.2046)" fill="#FFDE2F"/>
</g>
<path fill-rule="evenodd" clip-rule="evenodd" d="M312.118 119.425C311.529 119.762 311.328 120.512 311.669 121.099C315.53 127.746 321.041 131.708 327.146 132.675C333.246 133.641 339.729 131.582 345.482 126.605C345.995 126.162 346.048 125.387 345.601 124.876C345.154 124.364 344.376 124.309 343.864 124.753C338.548 129.352 332.773 131.085 327.526 130.254C322.284 129.424 317.36 126.002 313.801 119.875C313.46 119.289 312.706 119.087 312.118 119.425Z" fill="#212121"/>
<path fill-rule="evenodd" clip-rule="evenodd" d="M292.987 91.6507C293.616 91.9075 293.916 92.6232 293.657 93.2491C291.91 97.4692 287.179 99.368 282.764 99.4026C278.349 99.4372 273.562 97.617 271.617 93.5749C271.323 92.9649 271.583 92.2331 272.197 91.9404C272.811 91.6477 273.547 91.905 273.84 92.515C275.209 95.3599 278.837 96.9832 282.748 96.9525C286.66 96.9219 290.166 95.2468 291.378 92.319C291.638 91.6931 292.358 91.3938 292.987 91.6507Z" fill="#212121"/>
<path fill-rule="evenodd" clip-rule="evenodd" d="M193.345 87.4253C192.777 87.7975 192.622 88.5575 192.997 89.1228C197.251 95.5286 202.989 99.1572 209.141 99.7599C215.288 100.362 221.637 97.9224 227.081 92.6123C227.566 92.139 227.573 91.3631 227.096 90.8793C226.619 90.3955 225.839 90.3871 225.354 90.8604C220.324 95.7665 214.664 97.8386 209.377 97.3207C204.095 96.8033 198.973 93.6801 195.052 87.775C194.676 87.2097 193.912 87.0532 193.345 87.4253Z" fill="#212121"/>
<ellipse cx="276.356" cy="78.5431" rx="1.9147" ry="1.90299" fill="#212121"/>
<ellipse cx="290.715" cy="78.5431" rx="1.9147" ry="1.90299" fill="#212121"/>
<path fill-rule="evenodd" clip-rule="evenodd" d="M268.971 129.01C269.649 129.01 270.199 129.561 270.199 130.239V212.97C270.199 213.648 269.649 214.198 268.971 214.198H251.467C250.788 214.198 250.238 213.648 250.238 212.97C250.238 212.291 250.788 211.741 251.467 211.741H267.742V130.239C267.742 129.561 268.292 129.01 268.971 129.01ZM282.437 129.01C283.115 129.01 283.666 129.561 283.666 130.239V211.741H300.614C301.292 211.741 301.842 212.291 301.842 212.97C301.842 213.648 301.292 214.198 300.614 214.198H282.437C281.758 214.198 281.208 213.648 281.208 212.97V130.239C281.208 129.561 281.758 129.01 282.437 129.01Z" fill="#212121"/>
<g style="mix-blend-mode:multiply">
<ellipse rx="60.313" ry="58.9926" transform="matrix(1 0 0 -1 179.672 118.506)" fill="#FFDE2F"/>
</g>
<path fill-rule="evenodd" clip-rule="evenodd" d="M175.672 167.509C176.35 167.509 176.901 168.059 176.901 168.737V213.363C176.901 214.042 176.35 214.592 175.672 214.592H158.092C157.413 214.592 156.863 214.042 156.863 213.363C156.863 212.685 157.413 212.135 158.092 212.135H174.443V168.737C174.443 168.059 174.993 167.509 175.672 167.509ZM189.197 167.509C189.875 167.509 190.426 168.059 190.426 168.737V212.135H207.453C208.132 212.135 208.682 212.685 208.682 213.363C208.682 214.042 208.132 214.592 207.453 214.592H189.197C188.518 214.592 187.968 214.042 187.968 213.363V168.737C187.968 168.059 188.518 167.509 189.197 167.509Z" fill="#212121"/>
<path fill-rule="evenodd" clip-rule="evenodd" d="M186.222 114.608C186.886 114.468 187.538 114.893 187.677 115.557C188.991 121.826 185.029 127.716 179.764 131.199C174.494 134.687 167.396 136.121 161.878 132.932C161.291 132.593 161.091 131.841 161.431 131.254C161.771 130.666 162.523 130.465 163.11 130.805C167.529 133.359 173.589 132.34 178.41 129.151C183.236 125.957 186.295 120.947 185.271 116.063C185.132 115.399 185.558 114.748 186.222 114.608Z" fill="#212121"/>
<ellipse cx="158.61" cy="108.04" rx="1.9147" ry="1.90299" fill="#212121"/>
<ellipse cx="172.969" cy="108.04" rx="1.9147" ry="1.90299" fill="#212121"/>
<path fill-rule="evenodd" clip-rule="evenodd" d="M75.7344 166.69C76.413 166.69 76.9631 167.24 76.9631 167.919V212.545C76.9631 213.223 76.413 213.773 75.7344 213.773H58.1545C57.4759 213.773 56.9258 213.223 56.9258 212.545C56.9258 211.866 57.4759 211.316 58.1545 211.316H74.5057V167.919C74.5057 167.24 75.0558 166.69 75.7344 166.69ZM89.2594 166.69C89.938 166.69 90.488 167.24 90.488 167.919V211.316H107.515C108.194 211.316 108.744 211.866 108.744 212.545C108.744 213.223 108.194 213.773 107.515 213.773H89.2594C88.5808 213.773 88.0307 213.223 88.0307 212.545V167.919C88.0307 167.24 88.5808 166.69 89.2594 166.69Z" fill="#212121"/>
<g style="mix-blend-mode:multiply">
<ellipse rx="59.8343" ry="58.9926" transform="matrix(1 0 0 -1 86.3265 115.653)" fill="#FFDE2F"/>
</g>
<path fill-rule="evenodd" clip-rule="evenodd" d="M118.54 148.001C117.973 148.373 117.817 149.133 118.192 149.698C122.446 156.104 128.184 159.733 134.336 160.336C140.484 160.938 146.833 158.498 152.276 153.188C152.761 152.715 152.768 151.939 152.291 151.455C151.814 150.971 151.035 150.963 150.549 151.436C145.52 156.342 139.86 158.414 134.572 157.896C129.29 157.379 124.168 154.256 120.247 148.351C119.872 147.785 119.108 147.629 118.54 148.001Z" fill="#212121"/>
<path fill-rule="evenodd" clip-rule="evenodd" d="M35.6474 134.569C35.0579 134.233 34.305 134.437 33.9658 135.025C30.1232 141.682 29.4443 148.408 31.6706 154.14C33.8951 159.868 38.9434 164.405 46.1637 166.848C46.8071 167.066 47.5074 166.722 47.7278 166.081C47.9482 165.44 47.6053 164.744 46.9618 164.526C40.2902 162.269 35.8815 158.177 33.9681 153.251C32.0565 148.329 32.5588 142.378 36.1006 136.242C36.4398 135.654 36.2369 134.905 35.6474 134.569Z" fill="#212121"/>
<path fill-rule="evenodd" clip-rule="evenodd" d="M83.7102 135.109C83.9178 135.755 83.5622 136.446 82.9159 136.653C77.7212 138.312 73.0953 136.108 70.127 132.862C68.6417 131.238 67.5292 129.316 66.925 127.392C66.3251 125.481 66.1982 123.469 66.8299 121.733C67.0617 121.095 67.7668 120.768 68.4047 121C69.0426 121.233 69.3718 121.938 69.14 122.576C68.7482 123.653 68.7751 125.083 69.2701 126.659C69.7608 128.223 70.6843 129.833 71.94 131.206C74.4534 133.955 78.1287 135.601 82.1643 134.312C82.8106 134.106 83.5027 134.462 83.7102 135.109Z" fill="#212121"/>
<ellipse cx="87.7624" cy="108.04" rx="1.9147" ry="1.90299" fill="#212121"/>
<ellipse cx="102.118" cy="108.04" rx="1.9147" ry="1.90299" fill="#212121"/>
</svg>
