<svg width="108" height="36" viewBox="0 0 108 36" fill="none" xmlns="http://www.w3.org/2000/svg">
<path d="M26.057 24.9621C26.057 21.2136 23.9692 18.5089 20.1733 17.1803C23.21 15.6145 24.9657 13.0997 24.9657 9.96798C24.9657 4.13166 20.5528 0.905079 13.3879 0.905079H0.576505V34.974H13.9099C21.4069 34.974 26.057 31.2729 26.057 24.9621ZM12.8185 6.59905C16.3298 6.59905 18.1329 8.11744 18.1329 10.5374C18.1329 13.0048 16.3298 14.5232 12.8185 14.5232H7.12457V6.59905H12.8185ZM13.3405 20.2646C17.2314 20.2646 19.2717 21.9728 19.2717 24.6774C19.2717 27.5718 17.2314 29.28 13.3405 29.28H7.12457V20.2646H13.3405ZM47.0902 35.6857C56.9598 35.6857 64.5992 28.0938 64.5992 17.8921C64.5992 7.69039 56.9598 0.193334 47.0902 0.193334C37.2681 0.193334 29.6762 7.69039 29.6762 17.8921C29.6762 28.0938 37.2681 35.6857 47.0902 35.6857ZM47.0902 29.2326C40.8743 29.2326 37.0783 24.1555 37.0783 17.8921C37.0783 11.6287 40.8743 6.6465 47.0902 6.6465C53.3536 6.6465 57.1496 11.6287 57.1496 17.8921C57.1496 24.1555 53.3536 29.2326 47.0902 29.2326ZM95.0538 24.9621C95.0538 21.2136 92.966 18.5089 89.17 17.1803C92.2068 15.6145 93.9624 13.0997 93.9624 9.96798C93.9624 4.13166 89.5496 0.905079 82.3847 0.905079H69.5733V34.974H82.9066C90.4037 34.974 95.0538 31.2729 95.0538 24.9621ZM81.8153 6.59905C85.3266 6.59905 87.1297 8.11744 87.1297 10.5374C87.1297 13.0048 85.3266 14.5232 81.8153 14.5232H76.1213V6.59905H81.8153ZM82.3372 20.2646C86.2281 20.2646 88.2685 21.9728 88.2685 24.6774C88.2685 27.5718 86.2281 29.28 82.3372 29.28H76.1213V20.2646H82.3372ZM107.507 34.974V0.905079H100.295V34.974H107.507Z" fill="#4B5DFF"/>
</svg>
