<svg width="270" height="313" viewBox="0 0 270 313" fill="none" xmlns="http://www.w3.org/2000/svg">
<path d="M112.47 226C112.47 225.172 111.798 224.5 110.97 224.5C110.142 224.5 109.47 225.172 109.47 226H112.47ZM110.97 280.481H109.47C109.47 281.309 110.142 281.981 110.97 281.981V280.481ZM133.258 281.981C134.086 281.981 134.758 281.309 134.758 280.481C134.758 279.653 134.086 278.981 133.258 278.981V281.981ZM95.9583 226C95.9583 225.172 95.2867 224.5 94.4583 224.5C93.6299 224.5 92.9583 225.172 92.9583 226H95.9583ZM94.4583 280.481V281.981C95.2867 281.981 95.9583 281.309 95.9583 280.481H94.4583ZM72.9961 278.981C72.1677 278.981 71.4961 279.653 71.4961 280.481C71.4961 281.309 72.1677 281.981 72.9961 281.981V278.981ZM109.47 226V280.481H112.47V226H109.47ZM110.97 281.981H133.258V278.981H110.97V281.981ZM92.9583 226V280.481H95.9583V226H92.9583ZM94.4583 278.981H72.9961V281.981H94.4583V278.981Z" fill="#212121"/>
<g style="mix-blend-mode:multiply">
<ellipse rx="62.5" ry="62" transform="matrix(1 0 0 -1 109.5 171)" fill="#FFDE2F"/>
</g>
<g style="mix-blend-mode:multiply">
<ellipse rx="62.5" ry="62" transform="matrix(1 0 0 -1 175.5 94)" fill="#FFDE2F"/>
</g>
<path d="M148.84 114V73.2727H159.897V89.1818H174.533V73.2727H185.59V114H174.533V98.0909H159.897V114H148.84ZM190.999 114V83.4545H201.976V114H190.999ZM196.488 80.2727C195.003 80.2727 193.73 79.7822 192.669 78.8011C191.609 77.8201 191.078 76.6402 191.078 75.2614C191.078 73.8826 191.609 72.7027 192.669 71.7216C193.73 70.7405 195.003 70.25 196.488 70.25C197.986 70.25 199.258 70.7405 200.306 71.7216C201.366 72.7027 201.897 73.8826 201.897 75.2614C201.897 76.6402 201.366 77.8201 200.306 78.8011C199.258 79.7822 197.986 80.2727 196.488 80.2727Z" fill="#212121"/>
<path d="M36.5438 161.085C31.3469 175.506 38.3864 187.843 53.707 190.208" stroke="#212121" stroke-width="3" stroke-linecap="round"/>
<path d="M177.474 209.53C166.535 220.267 152.386 219.013 143.847 206.075" stroke="#212121" stroke-width="3" stroke-linecap="round"/>
<path d="M177.578 223.5C177.578 193.284 177.578 145.5 177.578 145.5" stroke="#212121" stroke-width="3" stroke-linecap="round"/>
<path d="M97.0308 175.138C100.5 181.5 112 182.5 115.763 175.165" stroke="#212121" stroke-width="3" stroke-linecap="round"/>
<path d="M101.92 164.346C100.412 162.106 97.926 161.822 95.995 163.753" stroke="#212121" stroke-width="3" stroke-linecap="round"/>
<path d="M116.909 164.346C115.4 162.106 112.914 161.822 110.983 163.753" stroke="#212121" stroke-width="3" stroke-linecap="round"/>
</svg>
