<svg width="24" height="24" viewBox="0 0 24 24" fill="none" xmlns="http://www.w3.org/2000/svg">
<circle cx="12" cy="12" r="12" fill="#FF1200"/>
<path d="M16.5957 8.11088C16.791 7.91562 16.791 7.59903 16.5957 7.40377C16.4005 7.20851 16.0839 7.20851 15.8886 7.40377L16.5957 8.11088ZM7.40335 15.8891C7.20809 16.0843 7.20809 16.4009 7.40335 16.5962C7.59862 16.7914 7.9152 16.7914 8.11046 16.5962L7.40335 15.8891ZM15.8886 7.40377L7.40335 15.8891L8.11046 16.5962L16.5957 8.11088L15.8886 7.40377Z" fill="#FDFDFD"/>
<path d="M15.8886 16.5962C16.0839 16.7915 16.4005 16.7915 16.5957 16.5962C16.791 16.401 16.791 16.0844 16.5957 15.8891L15.8886 16.5962ZM8.11046 7.40384C7.9152 7.20858 7.59862 7.20858 7.40335 7.40384C7.20809 7.5991 7.20809 7.91569 7.40335 8.11095L8.11046 7.40384ZM16.5957 15.8891L8.11046 7.40384L7.40335 8.11095L15.8886 16.5962L16.5957 15.8891Z" fill="#FDFDFD"/>
</svg>
