<svg width="209" height="38" viewBox="0 0 209 38" fill="none" xmlns="http://www.w3.org/2000/svg">
<path d="M165.719 18.2887C165.719 10.9865 159.61 5.06693 152.075 5.06693C144.54 5.06693 138.431 10.9865 138.431 18.2887C138.431 25.5909 144.54 31.5104 152.075 31.5104C159.61 31.5104 165.719 25.5909 165.719 18.2887Z" fill="#FFDE2F"/>
<path fill-rule="evenodd" clip-rule="evenodd" d="M158.749 21.8592C157.866 22.2664 156.88 22.4941 155.84 22.4941C152.073 22.4941 149.02 19.5116 149.02 15.8325C149.02 12.1534 152.073 9.17084 155.84 9.17084C159.606 9.17084 162.659 12.1534 162.659 15.8325C162.659 17.8193 161.768 19.6029 160.356 20.8234L166.185 29.2565C166.483 29.6869 166.367 30.2715 165.926 30.5622C165.485 30.8528 164.887 30.7395 164.589 30.309L158.749 21.8592ZM150.946 15.8325C150.946 13.1922 153.137 11.0518 155.84 11.0518C158.542 11.0518 160.733 13.1922 160.733 15.8325C160.733 17.4746 159.886 18.9233 158.595 19.784C158.566 19.799 158.538 19.8156 158.511 19.8338C158.49 19.8473 158.47 19.8616 158.451 19.8764C157.695 20.3431 156.8 20.6132 155.84 20.6132C153.137 20.6132 150.946 18.4728 150.946 15.8325Z" fill="#212121"/>
<path fill-rule="evenodd" clip-rule="evenodd" d="M150.163 21.601C150.258 21.7475 150.213 21.9411 150.063 22.0334C149.17 22.5829 148.141 22.4248 147.369 21.9433C146.603 21.4658 146.022 20.6278 146.055 19.7177C146.061 19.5447 146.209 19.4094 146.387 19.4155C146.564 19.4215 146.702 19.5667 146.696 19.7398C146.673 20.374 147.089 21.0245 147.714 21.4149C148.334 21.8015 149.09 21.8909 149.72 21.503C149.87 21.4106 150.069 21.4545 150.163 21.601Z" fill="#212121"/>
<path fill-rule="evenodd" clip-rule="evenodd" d="M146.239 16.6339C146.114 16.5115 146.114 16.313 146.239 16.1906C146.505 15.9307 146.838 15.7952 147.181 15.8301C147.522 15.8649 147.819 16.0632 148.026 16.3635C148.125 16.5071 148.086 16.7019 147.939 16.7987C147.792 16.8954 147.592 16.8574 147.493 16.7137C147.371 16.5364 147.232 16.4657 147.114 16.4537C146.998 16.4419 146.848 16.4821 146.693 16.6339C146.568 16.7564 146.365 16.7564 146.239 16.6339Z" fill="#212121"/>
<path d="M153.835 16.6946C153.835 16.9543 153.619 17.1648 153.353 17.1648C153.088 17.1648 152.872 16.9543 152.872 16.6946C152.872 16.4349 153.088 16.2243 153.353 16.2243C153.619 16.2243 153.835 16.4349 153.835 16.6946Z" fill="#212121"/>
<path d="M135.835 27.5327C135.835 23.855 133.738 21.2015 129.926 19.898C132.976 18.3618 134.739 15.8945 134.739 12.822C134.739 7.09592 130.307 3.93031 123.111 3.93031H110.244V37.3554H123.635C131.165 37.3554 135.835 33.7243 135.835 27.5327ZM122.539 9.51668C126.066 9.51668 127.877 11.0064 127.877 13.3806C127.877 15.8014 126.066 17.2911 122.539 17.2911H116.821V9.51668H122.539ZM123.064 22.924C126.971 22.924 129.02 24.5999 129.02 27.2534C129.02 30.0932 126.971 31.7691 123.064 31.7691H116.821V22.924H123.064Z" fill="#212121"/>
<path d="M7.24357 37.3554V24.5999H19.7769V18.5014H7.24357V10.0753H22.112V3.93031H0V37.3554H7.24357Z" fill="#212121"/>
<path d="M33.8474 37.3554V3.93031H26.6038V37.3554H33.8474Z" fill="#212121"/>
<path d="M62.6657 37.3554H69.7664V3.93031H63.0946V26.0896L48.1786 3.93031H40.3632V37.3554H46.9872V14.0323L62.6657 37.3554Z" fill="#212121"/>
<path d="M88.4732 37.3554C99.1003 37.3554 105.915 30.1863 105.915 20.4567C105.915 10.7271 99.3386 3.93031 88.4732 3.93031H76.3212V37.3554H88.4732ZM83.5648 10.0288H88.092C94.9067 10.0288 98.4808 13.7996 98.4808 20.4567C98.4808 27.3931 94.9067 31.257 88.092 31.257H83.5648V10.0288Z" fill="#212121"/>
<path d="M196.346 27.6895C196.346 24.0118 194.249 21.3583 190.437 20.0548C193.487 18.5185 195.25 16.0512 195.25 12.9787C195.25 7.25267 190.818 4.08705 183.622 4.08705H170.755V37.5122H184.146C191.676 37.5122 196.346 33.881 196.346 27.6895ZM183.05 9.67343C186.577 9.67343 188.387 11.1631 188.387 13.5373C188.387 15.9581 186.577 17.4478 183.05 17.4478H177.332V9.67343H183.05ZM183.574 23.0807C187.482 23.0807 189.531 24.7566 189.531 27.4102C189.531 30.2499 187.482 31.9258 183.574 31.9258H177.332V23.0807H183.574Z" fill="#212121"/>
<path d="M208.372 37.5122V4.08705H201.129V37.5122H208.372Z" fill="#212121"/>
<path d="M171.5 13.9252C173.506 13.9252 175.133 15.514 175.133 17.4739C175.133 19.4338 173.506 21.0226 171.5 21.0226C169.494 21.0226 167.867 19.4338 167.867 17.4739C167.867 15.514 169.494 13.9252 171.5 13.9252Z" fill="#4B5DFF"/>
<path d="M138.431 0.487793C140.437 0.487793 142.064 2.07659 142.064 4.03646C142.064 5.99634 140.437 7.58513 138.431 7.58513C136.425 7.58513 134.798 5.99634 134.798 4.03646C134.798 2.07659 136.425 0.487793 138.431 0.487793Z" fill="#FF5CC8"/>
<path d="M155.923 12.2828C157.929 12.2828 159.556 13.8716 159.556 15.8314C159.556 17.7913 157.929 19.3801 155.923 19.3801C153.917 19.3801 152.29 17.7913 152.29 15.8314C152.29 13.8716 153.917 12.2828 155.923 12.2828Z" fill="#02DF8F"/>
<path d="M136.174 28.6106C138.18 28.6106 139.806 30.1994 139.806 32.1593C139.806 34.1192 138.18 35.708 136.174 35.708C134.168 35.708 132.541 34.1192 132.541 32.1593C132.541 30.1994 134.167 28.6106 136.174 28.6106Z" fill="#FFB800"/>
</svg>
