<svg width="56" height="56" viewBox="0 0 56 56" fill="none" xmlns="http://www.w3.org/2000/svg">
<circle r="27.5" transform="matrix(-1 0 0 1 28 28)" stroke="#212121"/>
<path d="M29.8614 32.9834C29.6661 33.1787 29.3495 33.1787 29.1543 32.9834C28.959 32.7882 28.959 32.4716 29.1543 32.2763L29.8614 32.9834ZM33.7505 28.3872L34.104 28.0337C34.2993 28.229 34.2993 28.5455 34.104 28.7408L33.7505 28.3872ZM29.1543 24.4982C28.959 24.3029 28.959 23.9863 29.1543 23.791C29.3495 23.5958 29.6661 23.5958 29.8614 23.791L29.1543 24.4982ZM29.1543 32.2763L33.3969 28.0337L34.104 28.7408L29.8614 32.9834L29.1543 32.2763ZM33.3969 28.7408L29.1543 24.4982L29.8614 23.791L34.104 28.0337L33.3969 28.7408Z" fill="#212121"/>
<path d="M33.5999 27.9493C33.8761 27.9493 34.0999 28.1732 34.0998 28.4494C34.0998 28.7255 33.8759 28.9493 33.5997 28.9493L33.5999 27.9493ZM21.1712 28.9469C20.895 28.9468 20.6712 28.7229 20.6713 28.4468C20.6713 28.1706 20.8952 27.9468 21.1713 27.9469L21.1712 28.9469ZM33.5997 28.9493L21.1712 28.9469L21.1713 27.9469L33.5999 27.9493L33.5997 28.9493Z" fill="#212121"/>
</svg>
