<svg width="275" height="294" viewBox="0 0 275 294" fill="none" xmlns="http://www.w3.org/2000/svg">
<path d="M152.898 186C152.898 185.172 152.226 184.5 151.398 184.5C150.57 184.5 149.898 185.172 149.898 186H152.898ZM151.398 262H149.898C149.898 262.828 150.57 263.5 151.398 263.5V262ZM171 263.5C171.828 263.5 172.5 262.828 172.5 262C172.5 261.172 171.828 260.5 171 260.5V263.5ZM138.376 186C138.376 185.172 137.704 184.5 136.876 184.5C136.048 184.5 135.376 185.172 135.376 186H138.376ZM136.876 262V263.5C137.704 263.5 138.376 262.828 138.376 262H136.876ZM118 260.5C117.172 260.5 116.5 261.172 116.5 262C116.5 262.828 117.172 263.5 118 263.5V260.5ZM149.898 186V262H152.898V186H149.898ZM151.398 263.5H171V260.5H151.398V263.5ZM135.376 186V262H138.376V186H135.376ZM136.876 260.5H118V263.5H136.876V260.5Z" fill="#212121"/>
<g style="mix-blend-mode:multiply">
<ellipse rx="63" ry="62" transform="matrix(1 0 0 -1 142 129)" fill="#FFDE2F"/>
</g>
<g style="mix-blend-mode:multiply">
<ellipse rx="43" ry="42" transform="matrix(1 0 0 -1 75 74)" fill="#FFDE2F"/>
</g>
<path fill-rule="evenodd" clip-rule="evenodd" d="M161.535 135.615C162.281 135.974 162.595 136.87 162.236 137.617C160.188 141.874 155.129 143.739 150.525 143.776C145.934 143.812 140.877 142.034 138.865 137.897C138.502 137.152 138.812 136.254 139.557 135.892C140.302 135.529 141.2 135.84 141.562 136.585C142.838 139.207 146.424 140.808 150.501 140.776C154.565 140.744 158.197 139.092 159.533 136.316C159.892 135.57 160.788 135.256 161.535 135.615Z" fill="#212121"/>
<circle cx="144" cy="122" r="2" fill="#212121"/>
<circle cx="159" cy="122" r="2" fill="#212121"/>
<path fill-rule="evenodd" clip-rule="evenodd" d="M181.25 164.783C180.532 165.197 180.287 166.114 180.701 166.832C184.759 173.861 190.564 178.072 197.016 179.1C203.462 180.127 210.298 177.935 216.346 172.67C216.971 172.126 217.036 171.179 216.492 170.554C215.948 169.929 215.001 169.863 214.376 170.407C208.863 175.207 202.894 176.999 197.487 176.138C192.087 175.277 186.992 171.728 183.299 165.332C182.885 164.614 181.967 164.369 181.25 164.783Z" fill="#212121"/>
<path fill-rule="evenodd" clip-rule="evenodd" d="M92.4622 143.086C91.6878 143.381 91.2984 144.247 91.5925 145.021C96.558 158.095 106.98 164.245 117.445 164.287C127.854 164.33 138.196 158.325 143.024 147.418C143.359 146.661 143.017 145.775 142.26 145.44C141.502 145.104 140.616 145.447 140.281 146.204C135.95 155.987 126.713 161.325 117.458 161.287C108.258 161.25 98.9307 155.893 94.3971 143.956C94.1029 143.182 93.2367 142.792 92.4622 143.086Z" fill="#212121"/>
<g style="mix-blend-mode:multiply">
<rect x="212.137" y="140.542" width="31.7522" height="50" rx="5" transform="rotate(15.2391 212.137 140.542)" fill="#FFDE2F"/>
</g>
<path fill-rule="evenodd" clip-rule="evenodd" d="M216.58 151.631C216.898 150.573 218.014 149.974 219.071 150.293L232.093 154.214C233.15 154.532 233.749 155.648 233.431 156.705L230.634 165.993C230.316 167.05 229.2 167.65 228.143 167.331L215.121 163.41C214.064 163.091 213.464 161.976 213.783 160.918L216.58 151.631ZM231.516 156.129L218.495 152.208L215.698 161.495L228.719 165.416L231.516 156.129Z" fill="#212121"/>
<path fill-rule="evenodd" clip-rule="evenodd" d="M233.222 156.348L224.121 161.052C223.165 161.546 221.989 161.195 221.461 160.258L216.795 151.986L218.537 151.004L223.203 159.275L222.332 159.766L223.203 159.275L232.304 154.571L233.222 156.348Z" fill="#212121"/>
<path d="M71.603 60.1818C71.603 61.4508 71.3625 62.5303 70.8814 63.4205C70.4041 64.3106 69.7526 64.9905 68.9268 65.4602C68.1049 65.9261 67.1806 66.1591 66.1541 66.1591C65.12 66.1591 64.192 65.9242 63.37 65.4545C62.5481 64.9848 61.8984 64.3049 61.4212 63.4148C60.9439 62.5246 60.7053 61.447 60.7053 60.1818C60.7053 58.9129 60.9439 57.8333 61.4212 56.9432C61.8984 56.053 62.5481 55.375 63.37 54.9091C64.192 54.4394 65.12 54.2045 66.1541 54.2045C67.1806 54.2045 68.1049 54.4394 68.9268 54.9091C69.7526 55.375 70.4041 56.053 70.8814 56.9432C71.3625 57.8333 71.603 58.9129 71.603 60.1818ZM69.1087 60.1818C69.1087 59.3598 68.9856 58.6667 68.7393 58.1023C68.4969 57.5379 68.1541 57.1098 67.7109 56.8182C67.2678 56.5265 66.7488 56.3807 66.1541 56.3807C65.5594 56.3807 65.0405 56.5265 64.5973 56.8182C64.1541 57.1098 63.8094 57.5379 63.5632 58.1023C63.3208 58.6667 63.1996 59.3598 63.1996 60.1818C63.1996 61.0038 63.3208 61.697 63.5632 62.2614C63.8094 62.8258 64.1541 63.2538 64.5973 63.5455C65.0405 63.8371 65.5594 63.983 66.1541 63.983C66.7488 63.983 67.2678 63.8371 67.7109 63.5455C68.1541 63.2538 68.4969 62.8258 68.7393 62.2614C68.9856 61.697 69.1087 61.0038 69.1087 60.1818ZM75.8004 60.9545V66H73.38V54.3636H75.7322V58.8125H75.8345C76.0315 58.2973 76.3497 57.8939 76.7891 57.6023C77.2285 57.3068 77.7796 57.1591 78.4425 57.1591C79.0485 57.1591 79.5769 57.2917 80.0277 57.5568C80.4822 57.8182 80.8345 58.1951 81.0845 58.6875C81.3383 59.1761 81.4633 59.7614 81.4595 60.4432V66H79.0391V60.875C79.0429 60.3371 78.9065 59.9186 78.63 59.6193C78.3572 59.3201 77.9747 59.1705 77.4822 59.1705C77.1527 59.1705 76.861 59.2405 76.6072 59.3807C76.3572 59.5208 76.1603 59.7254 76.0163 59.9943C75.8762 60.2595 75.8042 60.5795 75.8004 60.9545ZM53.9055 85.2727C53.5987 85.2727 53.3108 85.2481 53.0419 85.1989C52.7768 85.1534 52.5571 85.0947 52.3828 85.0227L52.9283 83.2159C53.2124 83.303 53.468 83.3504 53.6953 83.358C53.9264 83.3655 54.1252 83.3125 54.2919 83.1989C54.4624 83.0852 54.6006 82.892 54.7067 82.6193L54.8487 82.25L51.718 73.2727H54.2635L56.0703 79.6818H56.1612L57.9851 73.2727H60.5476L57.1555 82.9432C56.9927 83.4129 56.7711 83.822 56.4908 84.1705C56.2143 84.5227 55.8639 84.7936 55.4396 84.983C55.0154 85.1761 54.504 85.2727 53.9055 85.2727ZM65.4822 82.1705C64.5845 82.1705 63.8118 81.9886 63.1641 81.625C62.5201 81.2576 62.0239 80.7386 61.6754 80.0682C61.3269 79.3939 61.1527 78.5966 61.1527 77.6761C61.1527 76.7784 61.3269 75.9905 61.6754 75.3125C62.0239 74.6345 62.5144 74.1061 63.147 73.7273C63.7834 73.3485 64.5296 73.1591 65.3857 73.1591C65.9614 73.1591 66.4974 73.2519 66.9936 73.4375C67.4936 73.6193 67.9292 73.8939 68.3004 74.2614C68.6754 74.6288 68.9671 75.0909 69.1754 75.6477C69.3838 76.2008 69.4879 76.8485 69.4879 77.5909V78.2557H62.1186V76.7557H67.2095C67.2095 76.4072 67.1338 76.0985 66.9822 75.8295C66.8307 75.5606 66.6205 75.3504 66.3516 75.1989C66.0864 75.0436 65.7777 74.9659 65.4254 74.9659C65.058 74.9659 64.7322 75.0511 64.4482 75.2216C64.1679 75.3883 63.9482 75.6136 63.7891 75.8977C63.63 76.178 63.5485 76.4905 63.5447 76.8352V78.2614C63.5447 78.6932 63.6243 79.0663 63.7834 79.3807C63.9463 79.6951 64.1754 79.9375 64.4709 80.108C64.7663 80.2784 65.1167 80.3636 65.522 80.3636C65.791 80.3636 66.0372 80.3258 66.2607 80.25C66.4841 80.1742 66.6754 80.0606 66.8345 79.9091C66.9936 79.7576 67.1148 79.572 67.1982 79.3523L69.4368 79.5C69.3232 80.0379 69.0902 80.5076 68.7379 80.9091C68.3894 81.3068 67.9387 81.6174 67.3857 81.8409C66.8364 82.0606 66.2019 82.1705 65.4822 82.1705ZM73.5561 82.1648C72.9993 82.1648 72.5031 82.0682 72.0675 81.875C71.6319 81.678 71.2872 81.3883 71.0334 81.0057C70.7834 80.6193 70.6584 80.1383 70.6584 79.5625C70.6584 79.0777 70.7474 78.6705 70.9254 78.3409C71.1035 78.0114 71.3459 77.7462 71.6527 77.5455C71.9595 77.3447 72.308 77.1932 72.6982 77.0909C73.0921 76.9886 73.505 76.9167 73.9368 76.875C74.4444 76.822 74.8535 76.7727 75.1641 76.7273C75.4747 76.678 75.7 76.6061 75.8402 76.5114C75.9804 76.4167 76.0504 76.2765 76.0504 76.0909V76.0568C76.0504 75.697 75.9368 75.4186 75.7095 75.2216C75.486 75.0246 75.1679 74.9261 74.755 74.9261C74.3194 74.9261 73.9728 75.0227 73.7152 75.2159C73.4576 75.4053 73.2872 75.6439 73.2038 75.9318L70.9652 75.75C71.0788 75.2197 71.3023 74.7614 71.6357 74.375C71.969 73.9848 72.3989 73.6856 72.9254 73.4773C73.4557 73.2652 74.0694 73.1591 74.7663 73.1591C75.2512 73.1591 75.7152 73.2159 76.1584 73.3295C76.6054 73.4432 77.0012 73.6193 77.3459 73.858C77.6944 74.0966 77.969 74.4034 78.1697 74.7784C78.3705 75.1496 78.4709 75.5947 78.4709 76.1136V82H76.1754V80.7898H76.1072C75.9671 81.0625 75.7796 81.303 75.5447 81.5114C75.3099 81.7159 75.0277 81.8769 74.6982 81.9943C74.3686 82.108 73.9879 82.1648 73.5561 82.1648ZM74.2493 80.4943C74.6054 80.4943 74.9197 80.4242 75.1925 80.2841C75.4652 80.1402 75.6792 79.947 75.8345 79.7045C75.9898 79.4621 76.0675 79.1875 76.0675 78.8807V77.9545C75.9917 78.0038 75.8875 78.0492 75.755 78.0909C75.6262 78.1288 75.4804 78.1648 75.3175 78.1989C75.1546 78.2292 74.9917 78.2576 74.8288 78.2841C74.666 78.3068 74.5182 78.3277 74.3857 78.3466C74.1016 78.3883 73.8535 78.4545 73.6413 78.5455C73.4292 78.6364 73.2644 78.7595 73.147 78.9148C73.0296 79.0663 72.9709 79.2557 72.9709 79.483C72.9709 79.8125 73.0902 80.0644 73.3288 80.2386C73.5713 80.4091 73.8781 80.4943 74.2493 80.4943ZM82.7692 76.9545V82H80.3487V70.3636H82.701V74.8125H82.8033C83.0002 74.2973 83.3184 73.8939 83.7578 73.6023C84.1972 73.3068 84.7483 73.1591 85.4112 73.1591C86.0173 73.1591 86.5457 73.2917 86.9964 73.5568C87.451 73.8182 87.8033 74.1951 88.0533 74.6875C88.3071 75.1761 88.4321 75.7614 88.4283 76.4432V82H86.0078V76.875C86.0116 76.3371 85.8752 75.9186 85.5987 75.6193C85.326 75.3201 84.9434 75.1705 84.451 75.1705C84.1214 75.1705 83.8298 75.2405 83.576 75.3807C83.326 75.5208 83.129 75.7254 82.9851 75.9943C82.8449 76.2595 82.773 76.5795 82.7692 76.9545ZM93.2251 70.3636L93.0036 78.5114H90.924L90.6967 70.3636H93.2251ZM91.9638 82.1477C91.5888 82.1477 91.2668 82.0152 90.9979 81.75C90.7289 81.4811 90.5964 81.1591 90.6001 80.7841C90.5964 80.4129 90.7289 80.0947 90.9979 79.8295C91.2668 79.5644 91.5888 79.4318 91.9638 79.4318C92.3236 79.4318 92.6399 79.5644 92.9126 79.8295C93.1854 80.0947 93.3236 80.4129 93.3274 80.7841C93.3236 81.0341 93.2573 81.2633 93.1286 81.4716C93.0036 81.6761 92.8388 81.8409 92.6342 81.9659C92.4297 82.0871 92.2062 82.1477 91.9638 82.1477Z" fill="#212121"/>
</svg>
