<svg width="56" height="56" viewBox="0 0 56 56" fill="none" xmlns="http://www.w3.org/2000/svg">
<circle cx="28" cy="28" r="27.5" stroke="#212121"/>
<path d="M26.1386 32.9834C26.3339 33.1787 26.6505 33.1787 26.8457 32.9834C27.041 32.7882 27.041 32.4716 26.8457 32.2763L26.1386 32.9834ZM22.2495 28.3872L21.896 28.0337C21.7007 28.229 21.7007 28.5455 21.896 28.7408L22.2495 28.3872ZM26.8457 24.4982C27.041 24.3029 27.041 23.9863 26.8457 23.791C26.6505 23.5958 26.3339 23.5958 26.1386 23.791L26.8457 24.4982ZM26.8457 32.2763L22.6031 28.0337L21.896 28.7408L26.1386 32.9834L26.8457 32.2763ZM22.6031 28.7408L26.8457 24.4982L26.1386 23.791L21.896 28.0337L22.6031 28.7408Z" fill="#212121"/>
<path d="M22.4001 27.9493C22.1239 27.9493 21.9001 28.1732 21.9002 28.4494C21.9002 28.7255 22.1241 28.9493 22.4003 28.9493L22.4001 27.9493ZM34.8288 28.9469C35.105 28.9468 35.3288 28.7229 35.3287 28.4468C35.3287 28.1706 35.1048 27.9468 34.8287 27.9469L34.8288 28.9469ZM22.4003 28.9493L34.8288 28.9469L34.8287 27.9469L22.4001 27.9493L22.4003 28.9493Z" fill="#212121"/>
</svg>