<svg width="549" height="291" viewBox="0 0 549 291" fill="none" xmlns="http://www.w3.org/2000/svg">
<g style="mix-blend-mode:multiply">
<path d="M516.472 139.053C516.472 99.6374 483.804 67.6844 443.505 67.6844C403.207 67.6844 370.539 99.6374 370.539 139.053C370.539 178.469 403.207 210.422 443.505 210.422C483.804 210.422 516.472 178.469 516.472 139.053Z" fill="#FFDE2F"/>
</g>
<path fill-rule="evenodd" clip-rule="evenodd" d="M423.732 132.727C424.052 133.483 423.698 134.353 422.941 134.671C419.714 136.023 416.247 135.334 413.65 133.7C411.082 132.086 409.069 129.351 409.096 126.288C409.103 125.468 409.775 124.811 410.597 124.821C411.419 124.83 412.079 125.503 412.072 126.322C412.057 128.05 413.244 129.94 415.231 131.19C417.188 132.42 419.631 132.834 421.781 131.933C422.538 131.616 423.411 131.971 423.732 132.727Z" fill="#212121"/>
<path fill-rule="evenodd" clip-rule="evenodd" d="M475.011 207.887C474.989 208.708 475.636 209.391 476.457 209.413C485.79 209.663 493.385 206.527 498.252 200.882C503.116 195.24 505.086 187.288 503.562 178.237C503.426 177.428 502.659 176.882 501.85 177.019C501.04 177.155 500.494 177.922 500.631 178.732C502.037 187.084 500.181 194.093 496 198.942C491.822 203.788 485.153 206.672 476.538 206.441C475.717 206.419 475.034 207.067 475.011 207.887Z" fill="#212121"/>
<path d="M415.695 114.879C415.695 116.15 414.658 117.181 413.379 117.181C412.1 117.181 411.062 116.15 411.062 114.879C411.062 113.607 412.1 112.577 413.379 112.577C414.658 112.577 415.695 113.607 415.695 114.879Z" fill="#212121"/>
<path d="M433.078 114.879C433.078 116.15 432.041 117.181 430.762 117.181C429.482 117.181 428.445 116.15 428.445 114.879C428.445 113.607 429.482 112.577 430.762 112.577C432.041 112.577 433.078 113.607 433.078 114.879Z" fill="#212121"/>
<path fill-rule="evenodd" clip-rule="evenodd" d="M436.674 195.013C437.495 195.013 438.16 195.679 438.16 196.5V257.939C438.16 258.76 437.495 259.425 436.674 259.425H415.498C414.677 259.425 414.012 258.76 414.012 257.939C414.012 257.118 414.677 256.453 415.498 256.453H435.188V196.5C435.188 195.679 435.853 195.013 436.674 195.013ZM452.965 195.013C453.786 195.013 454.452 195.679 454.452 196.5V256.453H474.956C475.777 256.453 476.442 257.118 476.442 257.939C476.442 258.76 475.777 259.425 474.956 259.425H452.965C452.144 259.425 451.479 258.76 451.479 257.939V196.5C451.479 195.679 452.144 195.013 452.965 195.013Z" fill="#212121"/>
<g style="mix-blend-mode:multiply">
<path d="M405.273 103.37C405.273 63.9538 372.604 32.0008 332.306 32.0008C292.008 32.0008 259.34 63.9538 259.34 103.37C259.34 142.786 292.008 174.739 332.306 174.739C372.604 174.739 405.273 142.786 405.273 103.37Z" fill="#FFDE2F"/>
</g>
<path fill-rule="evenodd" clip-rule="evenodd" d="M377.882 144.769C377.17 145.178 376.927 146.084 377.34 146.794C382.011 154.836 388.677 159.63 396.063 160.799C403.443 161.968 411.287 159.478 418.247 153.456C418.867 152.919 418.931 151.983 418.39 151.364C417.85 150.745 416.909 150.679 416.288 151.215C409.858 156.779 402.871 158.875 396.524 157.87C390.182 156.866 384.224 152.727 379.918 145.314C379.506 144.605 378.594 144.36 377.882 144.769Z" fill="#212121"/>
<path fill-rule="evenodd" clip-rule="evenodd" d="M354.738 111.168C355.499 111.479 355.862 112.345 355.549 113.102C353.435 118.208 347.711 120.505 342.37 120.547C337.029 120.589 331.238 118.386 328.884 113.496C328.529 112.758 328.843 111.873 329.586 111.519C330.329 111.165 331.219 111.476 331.574 112.214C333.23 115.656 337.619 117.62 342.351 117.583C347.083 117.545 351.325 115.519 352.792 111.977C353.105 111.22 353.977 110.858 354.738 111.168Z" fill="#212121"/>
<path fill-rule="evenodd" clip-rule="evenodd" d="M234.193 106.057C233.506 106.507 233.318 107.426 233.772 108.11C238.918 115.86 245.86 120.25 253.303 120.979C260.74 121.707 268.421 118.756 275.006 112.332C275.593 111.759 275.602 110.82 275.025 110.235C274.448 109.65 273.504 109.64 272.917 110.212C266.832 116.148 259.985 118.654 253.588 118.028C247.198 117.402 241.002 113.623 236.258 106.48C235.804 105.796 234.879 105.606 234.193 106.057Z" fill="#212121"/>
<path d="M336.937 95.311C336.937 96.5825 335.9 97.6132 334.621 97.6132C333.342 97.6132 332.305 96.5825 332.305 95.311C332.305 94.0395 333.342 93.0088 334.621 93.0088C335.9 93.0088 336.937 94.0395 336.937 95.311Z" fill="#212121"/>
<path d="M354.309 95.311C354.309 96.5825 353.271 97.6132 351.992 97.6132C350.713 97.6132 349.676 96.5825 349.676 95.311C349.676 94.0395 350.713 93.0088 351.992 93.0088C353.271 93.0088 354.309 94.0395 354.309 95.311Z" fill="#212121"/>
<path fill-rule="evenodd" clip-rule="evenodd" d="M325.686 156.366C326.507 156.366 327.172 157.032 327.172 157.853V257.939C327.172 258.76 326.507 259.426 325.686 259.426H304.51C303.689 259.426 303.023 258.76 303.023 257.939C303.023 257.118 303.689 256.453 304.51 256.453H324.199V157.853C324.199 157.032 324.865 156.366 325.686 156.366ZM341.977 156.366C342.798 156.366 343.464 157.032 343.464 157.853V256.453H363.967C364.788 256.453 365.454 257.118 365.454 257.939C365.454 258.76 364.788 259.426 363.967 259.426H341.977C341.156 259.426 340.491 258.76 340.491 257.939V157.853C340.491 157.032 341.156 156.366 341.977 156.366Z" fill="#212121"/>
<g style="mix-blend-mode:multiply">
<path d="M290.616 143.658C290.616 104.242 257.948 72.2889 217.65 72.2889C177.352 72.2889 144.684 104.242 144.684 143.658C144.684 183.074 177.352 215.027 217.65 215.027C257.948 215.027 290.616 183.074 290.616 143.658Z" fill="#FFDE2F"/>
</g>
<path fill-rule="evenodd" clip-rule="evenodd" d="M212.809 202.94C213.63 202.94 214.296 203.606 214.296 204.427V258.415C214.296 259.236 213.63 259.902 212.809 259.902H191.541C190.72 259.902 190.055 259.236 190.055 258.415C190.055 257.594 190.72 256.929 191.541 256.929H211.323V204.427C211.323 203.606 211.988 202.94 212.809 202.94ZM229.172 202.94C229.993 202.94 230.658 203.606 230.658 204.427V256.929H251.258C252.079 256.929 252.744 257.594 252.744 258.415C252.744 259.236 252.079 259.902 251.258 259.902H229.172C228.351 259.902 227.685 259.236 227.685 258.415V204.427C227.685 203.606 228.351 202.94 229.172 202.94Z" fill="#212121"/>
<path fill-rule="evenodd" clip-rule="evenodd" d="M225.573 138.942C226.376 138.772 227.164 139.286 227.333 140.089C228.923 147.674 224.129 154.8 217.76 159.014C211.384 163.233 202.797 164.968 196.122 161.11C195.411 160.7 195.169 159.791 195.58 159.08C195.992 158.369 196.901 158.126 197.612 158.537C202.958 161.626 210.29 160.394 216.121 156.536C221.96 152.672 225.661 146.61 224.423 140.702C224.254 139.899 224.769 139.111 225.573 138.942Z" fill="#212121"/>
<path d="M194.484 130.997C194.484 132.268 193.447 133.299 192.168 133.299C190.889 133.299 189.852 132.268 189.852 130.997C189.852 129.725 190.889 128.694 192.168 128.694C193.447 128.694 194.484 129.725 194.484 130.997Z" fill="#212121"/>
<path d="M211.859 130.997C211.859 132.268 210.822 133.299 209.543 133.299C208.264 133.299 207.227 132.268 207.227 130.997C207.227 129.725 208.264 128.694 209.543 128.694C210.822 128.694 211.859 129.725 211.859 130.997Z" fill="#212121"/>
<path fill-rule="evenodd" clip-rule="evenodd" d="M91.9108 201.95C92.7318 201.95 93.3973 202.616 93.3973 203.437V257.425C93.3973 258.246 92.7318 258.911 91.9108 258.911H70.6427C69.8218 258.911 69.1562 258.246 69.1562 257.425C69.1562 256.604 69.8218 255.939 70.6427 255.939H90.4244V203.437C90.4244 202.616 91.0899 201.95 91.9108 201.95ZM108.273 201.95C109.094 201.95 109.76 202.616 109.76 203.437V255.939H130.359C131.18 255.939 131.846 256.604 131.846 257.425C131.846 258.246 131.18 258.911 130.359 258.911H108.273C107.452 258.911 106.787 258.246 106.787 257.425V203.437C106.787 202.616 107.452 201.95 108.273 201.95Z" fill="#212121"/>
<g style="mix-blend-mode:multiply">
<path d="M177.114 140.206C177.114 100.79 144.706 68.8367 104.727 68.8367C64.7487 68.8367 32.3398 100.79 32.3398 140.206C32.3398 179.622 64.7487 211.575 104.727 211.575C144.706 211.575 177.114 179.622 177.114 140.206Z" fill="#FFDE2F"/>
</g>
<path fill-rule="evenodd" clip-rule="evenodd" d="M143.697 179.341C143.01 179.791 142.822 180.71 143.276 181.394C148.422 189.144 155.364 193.534 162.807 194.263C170.244 194.991 177.925 192.04 184.51 185.616C185.097 185.043 185.106 184.105 184.529 183.519C183.952 182.934 183.008 182.924 182.421 183.496C176.336 189.432 169.489 191.939 163.092 191.312C156.702 190.686 150.505 186.908 145.762 179.764C145.308 179.08 144.383 178.89 143.697 179.341Z" fill="#212121"/>
<path fill-rule="evenodd" clip-rule="evenodd" d="M43.4122 163.091C42.699 162.684 41.7882 162.931 41.3779 163.642C36.7291 171.697 35.9077 179.834 38.6011 186.768C41.2923 193.697 47.3997 199.187 56.1348 202.142C56.9132 202.405 57.7604 201.99 58.027 201.214C58.2936 200.439 57.8788 199.597 57.1004 199.333C49.029 196.603 43.6955 191.652 41.3806 185.692C39.068 179.738 39.6756 172.539 43.9605 165.114C44.3709 164.403 44.1254 163.497 43.4122 163.091Z" fill="#212121"/>
<path fill-rule="evenodd" clip-rule="evenodd" d="M101.562 163.744C101.813 164.526 101.383 165.362 100.601 165.612C94.3165 167.619 88.7202 164.953 85.1291 161.026C83.3322 159.061 81.9863 156.736 81.2554 154.408C80.5296 152.096 80.376 149.663 81.1403 147.562C81.4207 146.791 82.2737 146.394 83.0455 146.676C83.8172 146.957 84.2155 147.811 83.9351 148.581C83.461 149.885 83.4936 151.615 84.0924 153.522C84.6861 155.413 85.8034 157.362 87.3224 159.023C90.3632 162.348 94.8096 164.34 99.6918 162.781C100.474 162.531 101.311 162.962 101.562 163.744Z" fill="#212121"/>
<path d="M108.781 130.997C108.781 132.268 107.744 133.299 106.465 133.299C105.186 133.299 104.148 132.268 104.148 130.997C104.148 129.725 105.186 128.694 106.465 128.694C107.744 128.694 108.781 129.725 108.781 130.997Z" fill="#212121"/>
<path d="M126.145 130.997C126.145 132.268 125.107 133.299 123.828 133.299C122.549 133.299 121.512 132.268 121.512 130.997C121.512 129.725 122.549 128.694 123.828 128.694C125.107 128.694 126.145 129.725 126.145 130.997Z" fill="#212121"/>
</svg>
